<svg xmlns="http://www.w3.org/2000/svg" viewBox="0 0 30 30"><path fill="#303C42" d="M15 0C6.729 0 0 6.729 0 15s6.729 15 15 15 15-6.729 15-15S23.271 0 15 0zm9 20.5c0 .827-.673 1.5-1.5 1.5h-15c-.827 0-1.5-.673-1.5-1.5v-8.2a.5.5 0 0 1 .852-.355l6.449 6.395c.907.85 2.465.871 3.443-.043l6.404-6.333a.5.5 0 1 1 .852.355V20.5zm-.148-10.637l-7.797 7.71c-.301.282-.663.427-1.055.427-.38 0-.747-.138-1.005-.379l-.01-.01L6.15 9.84a.5.5 0 0 1-.148-.362A1.505 1.505 0 0 1 7.5 8h15c.827 0 1.5.673 1.5 1.5a.515.515 0 0 1-.148.363z"/></svg>
